<?xml version="1.0" encoding="utf-8"?>
<!-- Generator: Adobe Illustrator 16.0.0, SVG Export Plug-In . SVG Version: 6.00 Build 0)  -->
<!DOCTYPE svg PUBLIC "-//W3C//DTD SVG 1.1//EN" "http://www.w3.org/Graphics/SVG/1.1/DTD/svg11.dtd">
<svg version="1.1" id="Layer_1" xmlns="http://www.w3.org/2000/svg" xmlns:xlink="http://www.w3.org/1999/xlink" x="0px" y="0px"
	 width="147.667px" height="147.667px" viewBox="0 0 147.667 147.667" enable-background="new 0 0 147.667 147.667"
	 xml:space="preserve">
<g>
	<path fill="#333333" d="M73.833,0c40.711,0,73.834,33.121,73.834,73.834c0,40.71-33.123,73.833-73.834,73.833
		C33.121,147.667,0,114.544,0,73.834C0,33.121,33.121,0,73.833,0z M73.833,137.667c35.197,0,63.834-28.637,63.834-63.833
		c0-35.198-28.638-63.833-63.834-63.833C38.637,10.002,10,38.637,10,73.834C10,109.033,38.637,137.667,73.833,137.667z"/>
</g>
<path fill="#333333" d="M57.918,99.417V78.298l42.63,21.119v-50.5l-42.63,21.314V48.918L49.166,49v50.417H57.918z"/>
</svg>
