<svg version="1.1" id="Layer_1" xmlns="http://www.w3.org/2000/svg" xmlns:xlink="http://www.w3.org/1999/xlink" x="0px" y="0px"
	 width="147.667px" height="147.667px" viewBox="0 0 147.667 147.667" enable-background="new 0 0 147.667 147.667"
	 xml:space="preserve">
<g>
	<g>
		<path fill="#FFFFFF" d="M55.119,98.75v-50.5l50.735,25.133L55.119,98.75z M60.87,57.517v31.929l32.077-16.039L60.87,57.517z"/>
	</g>
	<g>
		<path fill="#FFFFFF" d="M73.834,147.667C33.122,147.667,0,114.546,0,73.833C0,33.122,33.122,0,73.834,0
			c40.712,0,73.833,33.122,73.833,73.833C147.667,114.546,114.546,147.667,73.834,147.667z M73.834,10
			C38.636,10,10,38.636,10,73.833s28.636,63.833,63.834,63.833c35.197,0,63.833-28.636,63.833-63.833S109.031,10,73.834,10z"/>
	</g>
</g>
</svg>
