<?xml version="1.0" encoding="utf-8"?>
<!-- Generator: Adobe Illustrator 16.0.0, SVG Export Plug-In . SVG Version: 6.00 Build 0)  -->
<!DOCTYPE svg PUBLIC "-//W3C//DTD SVG 1.1//EN" "http://www.w3.org/Graphics/SVG/1.1/DTD/svg11.dtd">
<svg version="1.1" id="Layer_1" xmlns="http://www.w3.org/2000/svg" xmlns:xlink="http://www.w3.org/1999/xlink" x="0px" y="0px"
	 width="147.668px" height="147.668px" viewBox="0 0 147.668 147.668" enable-background="new 0 0 147.668 147.668"
	 xml:space="preserve">
<g>
	<g>
		<path fill="#333333" d="M73.834,147.668C33.122,147.668,0,114.547,0,73.833C0,33.122,33.122,0,73.834,0
			c40.713,0,73.834,33.122,73.834,73.833C147.668,114.547,114.547,147.668,73.834,147.668z M73.834,10
			C38.636,10,10,38.636,10,73.833c0,35.198,28.636,63.833,63.834,63.833c35.197,0,63.834-28.635,63.834-63.833
			C137.668,38.636,109.031,10,73.834,10z"/>
	</g>
</g>
<g>
	<rect x="48.75" y="48.75" fill="#333333" width="19.417" height="50.5"/>
	<rect x="79.834" y="48.75" fill="#333333" width="19.416" height="50.5"/>
</g>
</svg>
